<?xml version="1.0" encoding="utf-8"?>
<!-- Generator: Adobe Illustrator 16.0.3, SVG Export Plug-In . SVG Version: 6.00 Build 0)  -->
<!DOCTYPE svg PUBLIC "-//W3C//DTD SVG 1.1//EN" "http://www.w3.org/Graphics/SVG/1.1/DTD/svg11.dtd">
<svg version="1.1" id="Layer_1" xmlns="http://www.w3.org/2000/svg" xmlns:xlink="http://www.w3.org/1999/xlink" x="0px" y="0px"
	 width="250px" height="250px" viewBox="0 0 250 250" enable-background="new 0 0 250 250" xml:space="preserve">
<rect fill-rule="evenodd" clip-rule="evenodd" fill="#CACACA" width="250" height="250"/>
<path fill-rule="evenodd" clip-rule="evenodd" fill="#FFFFFF" d="M179.264,141.952c0.295-23.025,0.586-45.848,0.88-68.852
	c-25.363,5.649-50.597,11.27-76.081,16.946c0,2.826,0.021,5.629-0.004,8.433c-0.124,13.951-0.252,27.903-0.396,41.854
	c-0.093,8.913-0.24,17.825-0.325,26.738c-0.146,15.311-10.96,28.555-25.747,31.445c-4.185,0.817-8.39,0.806-12.499-0.37
	c-9.335-2.671-14.543-12.071-12.013-21.516c3.045-11.367,12.706-19.475,24.439-20.536c6.41-0.579,12.281,0.961,17.685,4.399
	c0.456,0.289,0.906,0.587,1.708,1.107c0-2.358-0.023-4.425,0.003-6.491c0.187-14.502,0.372-29.005,0.579-43.507
	c0.186-13.007,0.413-26.013,0.568-39.021c0.013-1.088,0.414-1.369,1.376-1.591c23.337-5.377,46.667-10.789,69.998-16.193
	c5.545-1.284,11.089-2.564,16.799-3.885c0,2.534,0.007,4.958-0.002,7.38c-0.046,12.901-0.096,25.803-0.146,38.705
	c-0.074,18.773-0.099,37.547-0.252,56.32c-0.081,10.063-4.864,17.354-13.686,22.046c-7.947,4.226-16.373,5.556-25.247,4.055
	c-10.363-1.754-16.495-13.146-12.364-22.974c7.134-16.971,27.432-24.001,43.543-15.082
	C178.402,141.543,178.74,141.693,179.264,141.952z"/>
</svg>
