<?xml version="1.0" encoding="utf-8"?>
<!-- Generator: Adobe Illustrator 16.0.3, SVG Export Plug-In . SVG Version: 6.00 Build 0)  -->
<!DOCTYPE svg PUBLIC "-//W3C//DTD SVG 1.1//EN" "http://www.w3.org/Graphics/SVG/1.1/DTD/svg11.dtd">
<svg version="1.1" id="Layer_1" xmlns="http://www.w3.org/2000/svg" xmlns:xlink="http://www.w3.org/1999/xlink" x="0px" y="0px"
	 width="150px" height="300px" viewBox="0 0 150 300" enable-background="new 0 0 150 300" xml:space="preserve">
<linearGradient id="SVGID_1_" gradientUnits="userSpaceOnUse" x1="51.6963" y1="6.6191" x2="-40.3032" y2="307.2861">
	<stop  offset="0" style="stop-color:#19193A"/>
	<stop  offset="0.314" style="stop-color:#333366"/>
	<stop  offset="1" style="stop-color:#0E0E1B"/>
</linearGradient>
<polygon fill="url(#SVGID_1_)" points="-0.001,18.468 -0.001,300 9.999,300 9.999,0 9.996,0 "/>
<linearGradient id="SVGID_2_" gradientUnits="userSpaceOnUse" x1="22.2324" y1="28.0469" x2="142.2324" y2="281.3799">
	<stop  offset="0.1754" style="stop-color:#19193A"/>
	<stop  offset="1" style="stop-color:#0E0E1B"/>
</linearGradient>
<rect x="9.999" fill="url(#SVGID_2_)" width="140" height="300"/>
<circle fill="#0E0E1B" cx="115" cy="29.997" r="15"/>
<linearGradient id="SVGID_3_" gradientUnits="userSpaceOnUse" x1="100.8057" y1="44.1909" x2="131.3679" y2="13.6287">
	<stop  offset="0" style="stop-color:#41417A"/>
	<stop  offset="0.0195" style="stop-color:#3D3D74"/>
	<stop  offset="0.111" style="stop-color:#2D2D5A"/>
	<stop  offset="0.206" style="stop-color:#222248"/>
	<stop  offset="0.3061" style="stop-color:#1B1B3D"/>
	<stop  offset="0.4195" style="stop-color:#19193A"/>
	<stop  offset="0.6015" style="stop-color:#1B1B3D"/>
	<stop  offset="0.7311" style="stop-color:#212146"/>
	<stop  offset="0.8443" style="stop-color:#2A2A56"/>
	<stop  offset="0.9476" style="stop-color:#38386C"/>
	<stop  offset="1" style="stop-color:#41417A"/>
</linearGradient>
<path fill="url(#SVGID_3_)" d="M115,16.386c7.518,0,13.611,6.094,13.611,13.611S122.518,43.608,115,43.608
	c-7.517,0-13.611-6.094-13.611-13.611S107.483,16.386,115,16.386 M115,12.497c-9.649,0-17.5,7.85-17.5,17.5s7.851,17.5,17.5,17.5
	s17.5-7.85,17.5-17.5S124.649,12.497,115,12.497L115,12.497z"/>
<circle fill="#0E0E1B" cx="115" cy="74.994" r="15"/>
<linearGradient id="SVGID_4_" gradientUnits="userSpaceOnUse" x1="100.8057" y1="89.2275" x2="131.3675" y2="58.6657">
	<stop  offset="0" style="stop-color:#41417A"/>
	<stop  offset="0.0195" style="stop-color:#3D3D74"/>
	<stop  offset="0.111" style="stop-color:#2D2D5A"/>
	<stop  offset="0.206" style="stop-color:#222248"/>
	<stop  offset="0.3061" style="stop-color:#1B1B3D"/>
	<stop  offset="0.4195" style="stop-color:#19193A"/>
	<stop  offset="0.6015" style="stop-color:#1B1B3D"/>
	<stop  offset="0.7311" style="stop-color:#212146"/>
	<stop  offset="0.8443" style="stop-color:#2A2A56"/>
	<stop  offset="0.9476" style="stop-color:#38386C"/>
	<stop  offset="1" style="stop-color:#41417A"/>
</linearGradient>
<path fill="url(#SVGID_4_)" d="M115,61.422c7.518,0,13.611,6.094,13.611,13.611S122.518,88.645,115,88.645
	c-7.517,0-13.611-6.094-13.611-13.611S107.483,61.422,115,61.422 M115,57.533c-9.649,0-17.5,7.85-17.5,17.5s7.851,17.5,17.5,17.5
	s17.5-7.85,17.5-17.5S124.649,57.533,115,57.533L115,57.533z"/>
</svg>
